<svg class="svg-icon" style="width: 1em;height: 1em;vertical-align: middle;fill: currentColor;overflow: hidden;" viewBox="0 0 1024 1024" version="1.1" xmlns="http://www.w3.org/2000/svg"><path d="M385.024 706.368V406.72H285.376v299.68h99.616zM335.2 365.76c34.72 0 56.384-23.04 56.384-51.808-0.64-29.376-21.664-51.744-55.68-51.744-34.144 0-56.384 22.4-56.384 51.744 0 28.8 21.632 51.84 55.072 51.84z m409.024 340.608v-171.808c0-92.064-49.152-134.912-114.656-134.912-52.928 0-76.608 29.12-89.792 49.504v-42.496h-99.616c1.312 28.16 0 299.712 0 299.712h99.616v-167.36c0-8.96 0.64-17.92 3.264-24.256 7.168-17.92 23.584-36.448 51.072-36.448 36.064 0 50.56 27.456 50.56 67.744v160.352h99.584zM512 64c247.424 0 448 200.544 448 448 0 247.424-200.576 448-448 448-247.456 0-448-200.576-448-448C64 264.544 264.544 64 512 64z" fill="#181818" /></svg>